<?xml version="1.0" encoding="utf-8"?>
<!-- Generator: Adobe Illustrator 21.0.2, SVG Export Plug-In . SVG Version: 6.00 Build 0)  -->
<svg version="1.1" id="sh_logo" xmlns="http://www.w3.org/2000/svg" xmlns:xlink="http://www.w3.org/1999/xlink" x="0px" y="0px"
	 viewBox="0 0 193 111.3" style="enable-background:new 0 0 193 111.3;" xml:space="preserve">
<style type="text/css">
	.st0{fill:#0084D6;}
	.st1{fill:#003595;}
	.st2{fill:#00B3E3;}
	.st3{fill:#FF9F19;}
	.st4{fill:#FF4C00;}
</style>
<g>
	<g>
		<path class="st0" d="M62.9,61.8c5.1,3.9,4.6,13.6-5.5,15.6v14.2C74.3,90.9,81.9,69.4,62.9,61.8z"/>
		<path class="st1" d="M76.7,75.1c0,0.1,0,0.2,0,0.2c4.1-4.2,6.7-9.6,7.1-15.4H65.5C75.6,64.8,76.6,72.5,76.7,75.1z"/>
		<path class="st2" d="M44.7,60h-17c0.7,12.5,12.5,22.5,27,22.5V68.6C49.5,68.1,45.3,64.5,44.7,60z"/>
		<path class="st3" d="M48.4,57.3c-10.1-8.9-1-20.2,8.9-20.4l6.4-16.2C35,13.1,21.5,47.5,48.4,57.3z"/>
		<path class="st4" d="M31.4,35.8c0-0.1,0-0.3,0.1-0.4c-7,5.4-11.5,13.2-11.9,21.9H42C41,56.7,29.1,50,31.4,35.8z"/>
	</g>
	<path class="st1" d="M67.3,46.5c0,0,2.2,2.6,5.5,2.6c2,0,3.7-1.2,3.7-3.2c0-4.6-10.5-3.9-10.5-10.7c0-3.3,2.9-5.8,7-5.8
		c2.3,0,6.2,1,6.2,4v1.8h-2.8v-1c0-1.1-1.6-2-3.4-2c-2.3,0-3.8,1.3-3.8,2.9c0,4.4,10.5,3.4,10.5,10.6c0,3.3-2.6,6.2-6.9,6.2
		c-4.6,0-7.2-3.2-7.2-3.2L67.3,46.5z M83.1,39.2c0-0.5-0.2-0.7-0.7-0.7h-1.3V36h2.9c1.4,0,2,0.6,2,1.9v7.4c0,2.2,0.4,3.9,2.9,3.9
		c3.2,0,5.1-2.8,5.1-5.9V36h3v12.4c0,0.5,0.2,0.7,0.7,0.7h1.3v2.6h-2.9c-1.3,0-2-0.6-2-1.7v-0.6c0-0.5,0-0.9,0-0.9h-0.1
		c-0.6,1.5-2.7,3.6-5.7,3.6c-3.5,0-5.3-1.9-5.3-6V39.2z M102.4,39.2c0-0.5-0.2-0.7-0.7-0.7h-1.3V36h2.9c1.4,0,2,0.6,2,1.7v0.6
		c0,0.5,0,0.9,0,0.9h0.1c0.7-1.8,2.9-3.6,5.3-3.6c2.7,0,4.2,1.2,4.7,3.6h0.1c0.9-1.9,3-3.6,5.6-3.6c3.5,0,5.2,2,5.2,6v6.8
		c0,0.5,0.2,0.7,0.7,0.7h1.3v2.6h-3c-1.4,0-2-0.6-2-2v-7.4c0-2.2-0.4-3.9-2.7-3.9c-2.2,0-3.8,1.9-4.4,4c-0.2,0.6-0.2,1.3-0.2,2.1
		v7.1h-3v-9.4c0-2-0.3-3.9-2.7-3.9c-2.3,0-3.9,1.9-4.5,4.1c-0.2,0.6-0.2,1.3-0.2,2v7.1h-3V39.2z M131.1,39.2c0-0.5-0.2-0.7-0.7-0.7
		h-1.3V36h2.9c1.4,0,2,0.6,2,1.7v0.6c0,0.5,0,0.9,0,0.9h0.1c0.7-1.8,2.9-3.6,5.3-3.6c2.7,0,4.2,1.2,4.7,3.6h0.1
		c0.9-1.9,3-3.6,5.6-3.6c3.5,0,5.2,2,5.2,6v6.8c0,0.5,0.2,0.7,0.7,0.7h1.3v2.6h-3c-1.4,0-2-0.6-2-2v-7.4c0-2.2-0.4-3.9-2.7-3.9
		c-2.2,0-3.8,1.9-4.4,4c-0.2,0.6-0.2,1.3-0.2,2.1v7.1h-3v-9.4c0-2-0.3-3.9-2.7-3.9c-2.3,0-3.9,1.9-4.5,4.1c-0.2,0.6-0.2,1.3-0.2,2
		v7.1h-3V39.2z M167.8,41.9h0.7v-0.2c0-2.7-1-3.7-3.5-3.7c-0.7,0-2.6,0.2-2.6,1.2v0.9h-2.8v-1.5c0-2.6,3.9-2.9,5.4-2.9
		c5.1,0,6.4,2.7,6.4,6.1v6.6c0,0.5,0.2,0.7,0.7,0.7h1.3v2.6h-2.8c-1.4,0-1.9-0.7-1.9-1.8c0-0.5,0.1-0.9,0.1-0.9h-0.1
		c0,0-1.2,3.1-5,3.1c-2.7,0-5.3-1.6-5.3-4.8C158.3,42.2,165.1,41.9,167.8,41.9z M164.3,49.6c2.5,0,4.2-2.7,4.2-5v-0.5h-0.8
		c-2.3,0-6.3,0.1-6.3,3C161.4,48.3,162.3,49.6,164.3,49.6z M95.2,60h1.9v8.9h11.4V60h1.9v19.6h-1.9v-9H97.1v9h-1.9V60z M120.6,65.2
		c3.9,0,5.9,3,5.9,6.5c0,0.3-0.1,1-0.1,1h-10.8c0.1,3.6,2.5,5.6,5.4,5.6c2.6,0,4.3-1.7,4.3-1.7l0.9,1.5c0,0-2,2-5.2,2
		c-4.2,0-7.3-3-7.3-7.3C113.6,68,116.8,65.2,120.6,65.2z M124.5,71.1c-0.1-2.9-1.9-4.3-4-4.3c-2.3,0-4.4,1.5-4.8,4.3H124.5z
		 M137.2,70.9h0.8v-0.4c0-2.7-1.5-3.6-3.5-3.6c-2.3,0-4,1.3-4,1.3l-0.9-1.5c0,0,1.8-1.6,5-1.6c3.4,0,5.3,1.9,5.3,5.4v9h-1.8v-1.5
		c0-0.7,0.1-1.2,0.1-1.2h-0.1c0,0-1.2,3-4.7,3c-2.3,0-4.8-1.4-4.8-4.2C128.6,71,134.8,70.9,137.2,70.9z M133.7,78.3
		c2.7,0,4.3-2.8,4.3-5.2v-0.6h-0.8c-2.2,0-6.6,0.1-6.6,3.2C130.5,77,131.6,78.3,133.7,78.3z M143.6,60h1.9v15.9
		c0,1.8,0.8,2.1,1.6,2.1c0.3,0,0.5,0,0.5,0v1.7c0,0-0.3,0.1-0.7,0.1c-1.2,0-3.2-0.4-3.2-3.4V60z M150.7,67.3h-1.8v-1.6h1.9v-4.1h1.9
		v4.1h3.5v1.6h-3.5v7c0,3.3,2.1,3.7,3.2,3.7c0.4,0,0.6-0.1,0.6-0.1v1.7c0,0-0.3,0.1-0.8,0.1c-1.6,0-4.9-0.5-4.9-5.2V67.3z M159.3,60
		h1.9v7.6c0,0.6-0.1,1.1-0.1,1.1h0.1c0.5-1.3,2.4-3.5,5.6-3.5c3.5,0,4.7,2,4.7,5.4v8.9h-1.9v-8.4c0-2.2-0.3-4.2-3-4.2
		c-2.4,0-4.5,1.6-5.1,4c-0.2,0.6-0.2,1.2-0.2,1.9v6.7h-1.9V60z M173.4,76.3v-0.4h3v0.4h-1.3v3.3h-0.5v-3.3H173.4z M177.5,75.8
		l1.2,3.2l1.2-3.2h0.7v3.8h-0.5v-3.1h0l-1.2,3.1h-0.4l-1.2-3.1h0v3.1h-0.5v-3.8H177.5z"/>
</g>
</svg>
